<svg width="134" height="30" viewBox="0 0 134 30" fill="none" xmlns="http://www.w3.org/2000/svg">
<path d="M18.957 1.40234H24.4844V29H18.8789L6.32031 10.875V29H0.792969V1.40234H6.39844L18.957 19.5273V1.40234Z" fill="#F7D44C"/>
<path d="M52.6156 28.3945C50.8187 29.1237 48.8982 29.4883 46.8539 29.4883C44.8096 29.4883 42.8891 29.1237 41.0922 28.3945C39.2953 27.6523 37.7523 26.6497 36.4633 25.3867C35.1742 24.1237 34.1586 22.6133 33.4164 20.8555C32.6742 19.0846 32.3031 17.1966 32.3031 15.1914C32.3031 13.1862 32.6742 11.3047 33.4164 9.54688C34.1586 7.77604 35.1742 6.25911 36.4633 4.99609C37.7523 3.73307 39.2953 2.73698 41.0922 2.00781C42.8891 1.27865 44.8096 0.914062 46.8539 0.914062C49.5753 0.914062 52.0492 1.53906 54.2758 2.78906C56.5023 4.02604 58.2471 5.73828 59.5102 7.92578C60.7862 10.1003 61.4242 12.5221 61.4242 15.1914C61.4242 17.1966 61.0466 19.0846 60.2914 20.8555C59.5492 22.6133 58.5336 24.1237 57.2445 25.3867C55.9685 26.6497 54.4255 27.6523 52.6156 28.3945ZM40.5062 21.5977C42.212 23.3034 44.3279 24.1562 46.8539 24.1562C49.3799 24.1562 51.4893 23.3034 53.182 21.5977C54.8878 19.8789 55.7406 17.7435 55.7406 15.1914C55.7406 12.6393 54.8878 10.5104 53.182 8.80469C51.4893 7.09896 49.3799 6.24609 46.8539 6.24609C44.3279 6.24609 42.212 7.09896 40.5062 8.80469C38.8135 10.5104 37.9672 12.6393 37.9672 15.1914C37.9672 17.7435 38.8135 19.8789 40.5062 21.5977Z" fill="#EB7A53"/>
<path d="M86.9773 1.40234V6.59766H79.0086V29H73.5008V6.59766H65.493V1.40234H86.9773Z" fill="#98B7DB"/>
<path d="M94.4055 29V1.40234H99.9328V29H94.4055Z" fill="#A8D672"/>
<path d="M126.345 29L117.224 18.6875L114.666 21.4805V29H109.138V1.40234H114.666V14L125.994 1.40234H133.025L120.818 14.7227L133.552 29H126.345Z" fill="#F6ECC9"/>
</svg>
